<svg width="80" height="80" viewBox="0 0 80 80" fill="none" xmlns="http://www.w3.org/2000/svg">
<path d="M0 78.9786V67.5692H4.8901C5.94419 67.5692 6.75921 67.8798 7.33516 68.5009C7.9111 69.1221 8.19907 69.9557 8.19907 71.0018C8.19907 72.048 7.9111 72.8816 7.33516 73.5028C6.75921 74.1239 5.94419 74.4345 4.8901 74.4345H1.84194V78.9786H0ZM1.84194 72.8162H4.776C5.24328 72.8162 5.60732 72.6964 5.86812 72.4566C6.12893 72.206 6.25933 71.8518 6.25933 71.3941V70.6095C6.25933 70.1518 6.12893 69.8031 5.86812 69.5634C5.60732 69.3128 5.24328 69.1874 4.776 69.1874H1.84194V72.8162Z" fill="white"/>
<path d="M10.2196 78.9786V67.5692H12.0615V77.344H16.6908V78.9786H10.2196Z" fill="white"/>
<path d="M25.9701 78.9786L24.9432 75.8893H20.6888L19.6945 78.9786H17.82L21.6995 67.5692H24.0141L27.8936 78.9786H25.9701ZM22.8568 69.2692H22.7753L21.1289 74.3037H24.4868L22.8568 69.2692Z" fill="white"/>
<path d="M32.8111 69.2038V78.9786H30.9691V69.2038H27.5787V67.5692H36.2015V69.2038H32.8111Z" fill="white"/>
<path d="M37.997 78.9786V67.5692H45.1039V69.2038H39.8389V72.3749H44.5171V74.0095H39.8389V78.9786H37.997Z" fill="white"/>
<path d="M51.3123 79.1748C50.5734 79.1748 49.8996 79.0495 49.2911 78.7988C48.6934 78.5373 48.1772 78.1613 47.7426 77.671C47.3188 77.1697 46.9873 76.554 46.7482 75.8239C46.52 75.0829 46.4059 74.2329 46.4059 73.2739C46.4059 72.315 46.52 71.4704 46.7482 70.7403C46.9873 69.9993 47.3188 69.3836 47.7426 68.8932C48.1772 68.3919 48.6934 68.016 49.2911 67.7653C49.8996 67.5038 50.5734 67.373 51.3123 67.373C52.0513 67.373 52.7196 67.5038 53.3173 67.7653C53.9258 68.016 54.442 68.3919 54.8658 68.8932C55.3005 69.3836 55.6319 69.9993 55.8601 70.7403C56.0992 71.4704 56.2187 72.315 56.2187 73.2739C56.2187 74.2329 56.0992 75.0829 55.8601 75.8239C55.6319 76.554 55.3005 77.1697 54.8658 77.671C54.442 78.1613 53.9258 78.5373 53.3173 78.7988C52.7196 79.0495 52.0513 79.1748 51.3123 79.1748ZM51.3123 77.5238C51.747 77.5238 52.1437 77.4476 52.5023 77.295C52.8717 77.1424 53.1814 76.9245 53.4314 76.6412C53.6922 76.3469 53.8932 75.9928 54.0345 75.5787C54.1758 75.1646 54.2464 74.696 54.2464 74.1729V72.3749C54.2464 71.8518 54.1758 71.3832 54.0345 70.9691C53.8932 70.555 53.6922 70.2063 53.4314 69.923C53.1814 69.6288 52.8717 69.4054 52.5023 69.2528C52.1437 69.1003 51.747 69.024 51.3123 69.024C50.8668 69.024 50.4647 69.1003 50.1061 69.2528C49.7475 69.4054 49.4378 69.6288 49.177 69.923C48.9271 70.2063 48.7315 70.555 48.5902 70.9691C48.4489 71.3832 48.3783 71.8518 48.3783 72.3749V74.1729C48.3783 74.696 48.4489 75.1646 48.5902 75.5787C48.7315 75.9928 48.9271 76.3469 49.177 76.6412C49.4378 76.9245 49.7475 77.1424 50.1061 77.295C50.4647 77.4476 50.8668 77.5238 51.3123 77.5238Z" fill="white"/>
<path d="M60.3576 78.9786H58.5157V67.5692H63.4221C64.4436 67.5692 65.2477 67.8798 65.8345 68.5009C66.4214 69.1112 66.7148 69.9448 66.7148 71.0018C66.7148 71.8191 66.5246 72.5002 66.1443 73.0451C65.7748 73.579 65.226 73.955 64.4979 74.1729L66.9593 78.9786H64.9054L62.6234 74.3691H60.3576V78.9786ZM63.2917 72.8162C63.759 72.8162 64.123 72.6964 64.3838 72.4566C64.6446 72.206 64.775 71.8518 64.775 71.3941V70.6095C64.775 70.1518 64.6446 69.8031 64.3838 69.5634C64.123 69.3128 63.759 69.1874 63.2917 69.1874H60.3576V72.8162H63.2917Z" fill="white"/>
<path d="M77.9013 70.2499H77.8198L76.9232 72.097L74.4293 76.6575L71.9353 72.097L71.0388 70.2499H70.9573V78.9786H69.1969V67.5692H71.3811L74.4293 73.372H74.5271L77.5753 67.5692H79.6617V78.9786H77.9013V70.2499Z" fill="white"/>
<path d="M52.6199 13.3808C62.9917 20.7709 65.4089 35.1697 58.0188 45.5416C50.6287 55.9134 36.2298 58.3306 25.858 50.9405C15.4862 43.5504 13.069 29.1515 20.4591 18.7797C27.8491 8.40787 42.248 5.99069 52.6199 13.3808Z" fill="#D6CF6E"/>
<path d="M47.849 21.2404C53.9288 25.5723 55.3457 34.0127 51.0138 40.0925C46.6819 46.1723 38.2415 47.5892 32.1617 43.2572C26.082 38.9253 24.665 30.4849 28.997 24.4052C33.3289 18.3254 41.7693 16.9085 47.849 21.2404Z" fill="#F2AC57"/>
<path d="M52.6198 13.3807C62.9916 20.7708 65.4088 35.1697 58.0187 45.5415C50.6286 55.9133 36.2297 58.3305 25.8579 50.9404C31.1055 43.5759 38.911 32.621 38.911 32.621C46.3011 22.2491 38.911 32.6209 52.6198 13.3807Z" fill="#0880AE"/>
</svg>
